<svg xmlns="http://www.w3.org/2000/svg" viewBox="0 0 48 48"><path fill="#333" d="M47.4 17.4 24.9 1.1c-.5-.4-1.2-.4-1.8 0L.6 17.4c-.4.3-.6.7-.6 1.2s.2.9.6 1.2l22.5 16.4c.3.2.6.3.9.3s.6-.1.9-.3l22.5-16.4c.4-.3.6-.7.6-1.2s-.2-.9-.6-1.2z"/><path fill="#cd4343" d="M24 2.3 1.5 18.6 24 35l22.5-16.4z"/><path fill="#333" d="M38 7H10c-.8 0-1.5.7-1.5 1.5v16.3c0 .5.2.9.6 1.2l14 10.1c.3.2.6.3.9.3.3 0 .6-.1.9-.3l14-10.1c.4-.3.6-.7.6-1.2V8.5c0-.8-.7-1.5-1.5-1.5z"/><path fill="#fff" d="M38 8.5v16.3L24 35 10 24.8V8.5z"/><path fill="#333" d="M31.9 29c-.5-.5-1.3-.6-1.9-.2l-6 4.3-5.9-4.3c-.6-.4-1.4-.4-1.9.2L.4 44.7c-.4.4-.6 1.1-.3 1.6s.8.9 1.4.9h45.1c.6 0 1.2-.4 1.4-.9s.1-1.2-.3-1.6L31.9 29z"/><path fill="#333" d="M18.1 28.8 2.3 17.4c-.5-.3-1.1-.4-1.6-.1-.4.2-.7.8-.7 1.3v27.1c0 .6.4 1.2.9 1.4.6.2 1.2.1 1.6-.3l15.7-15.7c.3-.3.5-.7.4-1.2 0-.4-.2-.8-.5-1.1zM47.2 17.3c-.5-.3-1.1-.2-1.6.1L29.9 28.8c-.4.3-.6.7-.6 1.1 0 .4.1.9.4 1.2l15.7 15.7c.4.4 1.1.6 1.6.3.6-.2.9-.8.9-1.4V18.6c.1-.5-.2-1.1-.7-1.3z"/><path fill="#e9e9e9" d="m24 35-6.8-5L1.5 45.7h45L30.8 30z"/><path fill="#d2d2d2" d="M1.5 18.6v27.1L17.2 30z"/><path fill="#fff" d="M4.5 26c-.4 0-.7-.3-.7-.8v-.8c0-.4.3-.8.7-.8s.8.3.8.8v.8c-.1.5-.4.8-.8.8zM4.5 38.1c-.4 0-.7-.3-.7-.8V28c0-.4.3-.8.7-.8s.8.3.8.8v9.3c-.1.5-.4.8-.8.8z"/><path fill="#d2d2d2" d="m30.8 30 15.7 15.7V18.6z"/><path fill="#333" d="M16.6 29.5.9 45.2c-.3.3-.3.8 0 1.1.3.3.8.3 1.1 0l15.7-15.7c.3-.3.3-.8 0-1.1s-.8-.3-1.1 0zM47.1 45.2 31.4 29.5c-.3-.3-.8-.3-1.1 0s-.3.8 0 1.1L46 46.3c.3.3.8.3 1.1 0 .3-.3.3-.8 0-1.1zM34.4 11.2H13.6c-.4 0-.8.3-.8.8s.3.8.8.8h20.8c.4 0 .8-.3.8-.8s-.4-.8-.8-.8zM34.4 15.6H13.6c-.4 0-.8.3-.8.7 0 .4.3.8.8.8h20.8c.4 0 .8-.3.8-.8 0-.3-.4-.7-.8-.7zM24.4 20H13.6c-.4 0-.8.3-.8.8s.3.8.8.8h10.8c.4 0 .8-.3.8-.8s-.4-.8-.8-.8z"/><path fill="#333" d="M34.4 20H13.6c-.4 0-.8.3-.8.8s.3.8.8.8h20.8c.4 0 .8-.3.8-.8s-.4-.8-.8-.8zM29.4 24.5H18.6c-.4 0-.8.3-.8.8s.3.8.8.8h10.8c.4 0 .8-.3.8-.8s-.4-.8-.8-.8z"/></svg>